<mxfile host="app.diagrams.net" modified="2024-06-21T05:42:39.673Z" agent="Mozilla/5.0 (Windows NT 10.0; Win64; x64) AppleWebKit/537.36 (KHTML, like Gecko) Chrome/125.0.0.0 Safari/537.36 Edg/125.0.0.0" version="24.6.0" etag="VjkJmSd2HHAad9SbSZ41" type="github">
  <diagram name="Page-1" id="E2cSr3eVjyun2EixPYWU">
    <mxGraphModel>
      <root>
        <mxCell id="0" />
        <mxCell id="1" parent="0" />
      </root>
    </mxGraphModel>
  </diagram>
</mxfile>
